<svg width="122" height="123" viewBox="0 0 122 123" fill="none" xmlns="http://www.w3.org/2000/svg">
<path d="M27.61 34.37L23.54 38.97L23.94 40.71H34.42C32.28 53.09 30.68 64.25 27.61 81.45C23.94 103.39 21.83 108.78 20.58 110.75C19.48 112.7 17.9 113.71 15.76 113.71C13.41 113.71 9.16 111.85 6.88 109.74C6.06 109.18 5.09 109.32 4.06 110C2 111.74 -2.91993e-06 114.42 -2.91993e-06 116.82C-0.120003 120.06 4.21 122.88 8.34 122.88C11.98 122.88 17.34 120.6 22.98 115.24C30.69 107.93 36.46 97.9 41.28 76.22C44.38 62.38 45.84 53.38 48.02 40.72L61.04 39.54L63.86 34.37H49.2C52.99 10.53 55.95 7 59.59 7C62.01 7 64.83 8.86 68.07 12.52C69.03 13.84 70.47 13.7 71.57 12.8C73.42 11.7 75.7 8.88 75.85 6.32C75.96 3.5 72.6 0 66.82 0C61.58 0 53.55 3.5 46.8 10.38C40.88 16.65 37.78 24.48 35.64 34.37H27.61ZM69.27 50.33C73.31 44.95 75.73 43.16 76.98 43.16C78.27 43.16 79.3 44.43 81.51 51.57L85.29 63.76C77.98 74.94 72.63 81.17 69.38 81.17C68.3 81.17 67.21 80.83 66.44 80.07C65.68 79.31 64.84 78.68 64.02 78.68C61.34 78.68 58.02 81.93 57.96 85.96C57.9 90.07 60.78 93.01 64.56 93.01C71.05 93.01 76.54 86.64 87.14 69.75L90.24 80.2C92.9 89.18 96.02 93.01 99.92 93.01C104.74 93.01 111.22 88.9 118.29 77.79L115.33 74.41C111.08 79.53 108.26 81.93 106.59 81.93C104.73 81.93 103.1 79.09 100.95 72.11L96.42 57.38C99.1 53.43 101.74 50.11 104.06 47.46C106.82 44.31 108.95 42.97 110.4 42.97C111.62 42.97 112.68 43.49 113.34 44.22C114.21 45.18 114.73 45.63 115.76 45.63C118.09 45.63 121.69 42.67 121.82 38.75C121.94 35.11 119.68 32.01 115.76 32.01C109.84 32.01 104.62 37.11 94.57 52.05L92.5 45.64C89.6 36.64 87.68 32.01 83.64 32.01C78.94 32.01 72.48 37.79 66.16 46.95L69.27 50.33Z" fill="#989A99"/>
</svg>
